<svg xmlns="http://www.w3.org/2000/svg" viewBox="0 0 41 41" aria-hidden="true" class="www-Icon www-Icon--xlarge"><defs><linearGradient x1="0%" y1="50%" y2="50%" id="aobjstorage"><stop stop-color="#0069FF" stop-opacity=".4" offset="0%"></stop><stop stop-color="#0069FF" stop-opacity="0" offset="100%"></stop></linearGradient></defs><g fill-rule="nonzero" fill="none"><path d="M7.93 8.1c.395.02.78-.122 1.07-.39a1.43 1.43 0 0 0 .49-1.08 1.47 1.47 0 0 0-.39-1.07 1.61 1.61 0 0 0-1-.49H8a1.42 1.42 0 0 0-1.44 1.37A1.47 1.47 0 0 0 7 7.51c.18.35.536.576.93.59zM3.83 14.15a1.39 1.39 0 0 0 1.56-1.37A1.47 1.47 0 0 0 5 11.71a1.38 1.38 0 0 0-1.07-.49h-.1a1.41 1.41 0 0 0-1.46 1.37 1.43 1.43 0 0 0 .39 1.07c.28.296.663.472 1.07.49zM4 19.9a1.43 1.43 0 0 0-.39-1.07 1.39 1.39 0 0 0-1.07-.49h-.1a1.25 1.25 0 0 0-1 .39 1.23 1.23 0 0 0-.49 1c-.02.395.122.78.39 1.07.268.311.659.49 1.07.49A1.57 1.57 0 0 0 4 19.9zM4 25.46h-.07a1.27 1.27 0 0 0-1 .39 1.43 1.43 0 0 0-.49 1.08A1.47 1.47 0 0 0 2.85 28c.272.312.666.49 1.08.49.395.02.78-.122 1.07-.39a1.43 1.43 0 0 0 .49-1.1A1.52 1.52 0 0 0 4 25.46zM8.22 31.61h-.1A1.42 1.42 0 0 0 6.66 33c-.02.395.122.78.39 1.07a1.39 1.39 0 0 0 1.07.49 1.51 1.51 0 0 0 1.08-.39A1.55 1.55 0 0 0 9.29 32a2.33 2.33 0 0 0-1.07-.39zM14.27 35.51h-.1a1.25 1.25 0 0 0-1 .39 1.4 1.4 0 0 0-.46 1.1 1.43 1.43 0 0 0 .39 1.07 1.39 1.39 0 0 0 1.07.49c.395.02.78-.122 1.07-.39a1.4 1.4 0 0 0 .49-1.08 1.47 1.47 0 0 0-.39-1.09 1.57 1.57 0 0 0-1.07-.49z" fill="#120078"></path><circle fill="#120078" cx="27.73" cy="28.78" r="1.46"></circle><circle fill="#120078" cx="31.73" cy="23.22" r="1.46"></circle><circle fill="#120078" cx="31.83" cy="16.49" r="1.46"></circle><circle fill="#120078" cx="27.73" cy="10.73" r="1.46"></circle><path d="M14.07 4a1.45 1.45 0 0 0 1.56-1.37 1.43 1.43 0 0 0-1.36-1.56h-.1a1.25 1.25 0 0 0-1 .39 1.2 1.2 0 0 0-.49 1 1.43 1.43 0 0 0 .39 1.07c.236.311.61.487 1 .47z" fill="#120078"></path><path d="M20.8 32.1v-2.54a9.86 9.86 0 0 1 0-19.71V7.32c-6.65.267-11.902 5.735-11.902 12.39S14.15 31.833 20.8 32.1zM21.49 0v2.54c9.4.226 16.904 7.912 16.904 17.315 0 9.403-7.503 17.09-16.904 17.315v2.54c10.792-.242 19.414-9.06 19.414-19.855S32.282.242 21.49 0z" fill="#0069FF"></path><circle fill="url(#aobjstorage)" cx="21" cy="19.9" r="11.41"></circle></g></svg>