<svg xmlns="http://www.w3.org/2000/svg" viewBox="0 0 41 41" aria-hidden="true" class="www-Icon www-Icon--xlarge"><defs><linearGradient x1="50.12%" y1="29.025%" x2="50.12%" y2="103.864%" id="aloadbal"><stop stop-color="#0069FF" stop-opacity=".4" offset="0%"></stop><stop stop-color="#0069FF" stop-opacity="0" offset="100%"></stop></linearGradient><linearGradient x1=".089%" y1="50.61%" x2="100.199%" y2="50.61%" id="bloadbal"><stop stop-color="#0069FF" stop-opacity=".4" offset="0%"></stop><stop stop-color="#0069FF" stop-opacity="0" offset="100%"></stop></linearGradient></defs><g transform="translate(8)" fill="none" fill-rule="evenodd"><path d="M12.098 19.22s-8.196-.196-10.244 2.048C.293 23.024 0 25.561 0 27.902 0 34.537 5.463 40 12.098 40c6.731 0 12.097-5.463 12.097-12.098 0-1.95-.488-4-1.56-5.853-1.757-3.22-10.537-2.83-10.537-2.83z" fill="url(#aloadbal)" fill-rule="nonzero"></path><ellipse fill="url(#bloadbal)" fill-rule="nonzero" cx="12.098" cy="22.049" rx="10.049" ry="3.317"></ellipse><ellipse stroke="#0069FF" stroke-width="2" cx="12.098" cy="22.049" rx="10.049" ry="3.317"></ellipse><path d="M12.098 9.854S0 18.732 0 27.804C0 34.538 5.463 40 12.098 40c6.731 0 12.097-5.463 12.097-12.098.098-8.78-12.097-18.048-12.097-18.048z" stroke="#120078" stroke-width="2"></path><path d="M2.341 5.268v6.927M23.707 7.415v8.487M9.561 0v7.122M16.878 1.951v6.927" stroke="#0069FF" stroke-width="2" opacity=".3"></path></g></svg>